<svg width="153" height="100" viewBox="0 0 153 100" fill="none" xmlns="http://www.w3.org/2000/svg">
<g id="Group">
<path id="Shape" fill-rule="evenodd" clip-rule="evenodd" d="M119.293 11.8251C118.199 11.8251 117.162 12.0752 116.237 12.521C116.007 8.83294 112.934 5.90284 109.189 5.90284C108.093 5.90284 107.055 6.15372 106.128 6.60117C105.865 2.94444 102.808 0.0489349 99.0856 0.0489349C95.191 0.0489349 92.0225 3.21745 92.0225 7.11218V18.8201C92.0225 19.9309 92.9231 20.8314 94.0339 20.8314C95.1446 20.8314 96.0452 19.9309 96.0452 18.8201V7.11218C96.0452 5.43554 97.4091 4.07159 99.0856 4.07159C100.762 4.07159 102.126 5.43554 102.126 7.11218V39.3284V45.1823C102.126 46.859 100.762 48.2229 99.0856 48.2229C97.4091 48.2229 96.0452 46.859 96.0452 45.1823V33.4744C96.0452 32.3636 95.1446 31.4631 94.0339 31.4631H66.906C65.7952 31.4631 64.8947 32.3636 64.8947 33.4744C64.8947 34.5852 65.7952 35.4857 66.906 35.4857H92.0225V45.1823C92.0225 49.0771 95.191 52.2456 99.0856 52.2456C102.808 52.2456 105.866 49.3501 106.128 45.6933C107.055 46.1408 108.093 46.3917 109.189 46.3917C112.934 46.3917 116.007 43.4613 116.237 39.7735C117.162 40.2193 118.199 40.4694 119.293 40.4694C123.188 40.4694 126.356 37.3009 126.356 33.4063V18.8881C126.356 14.9935 123.188 11.8251 119.293 11.8251ZM112.23 39.3284C112.23 41.0051 110.866 42.369 109.189 42.369C107.513 42.369 106.149 41.0051 106.149 39.3284V12.9661C106.149 11.2894 107.513 9.92549 109.189 9.92549C110.866 9.92549 112.23 11.2894 112.23 12.9661V39.3284ZM119.293 36.4467C120.97 36.4467 122.334 35.0828 122.334 33.4063V18.8881C122.334 17.2117 120.97 15.8478 119.293 15.8478C117.617 15.8478 116.253 17.2117 116.253 18.8881V33.4063C116.253 35.0828 117.617 36.4467 119.293 36.4467Z" fill="#EE4D64"/>
<path id="Shape_2" fill-rule="evenodd" clip-rule="evenodd" d="M59.0314 31.4631C57.9206 31.4631 57.0201 32.3636 57.0201 33.4744V45.1823C57.0201 46.859 55.6561 48.2229 53.9795 48.2229C52.3028 48.2229 50.9389 46.859 50.9389 45.1823V39.3284V12.9661V7.11218C50.9389 5.43554 52.3028 4.07159 53.9795 4.07159C55.6561 4.07159 57.0201 5.43554 57.0201 7.11218V18.8201C57.0201 19.9309 57.9206 20.8314 59.0314 20.8314H86.1594C87.2702 20.8314 88.1707 19.9309 88.1707 18.8201C88.1707 17.7093 87.2702 16.8088 86.1594 16.8088H61.0427V7.11218C61.0427 3.21745 57.8742 0.0489349 53.9795 0.0489349C50.2568 0.0489349 47.1997 2.94444 46.9367 6.60117C46.0102 6.15372 44.9717 5.90284 43.8756 5.90284C40.1305 5.90284 37.0584 8.83321 36.8278 12.521C35.9026 12.0752 34.866 11.8251 33.7719 11.8251C29.8772 11.8251 26.7087 14.9936 26.7087 18.8884V33.4063C26.7087 37.3009 29.8772 40.4692 33.7719 40.4692C34.866 40.4692 35.9026 40.2192 36.8278 39.7733C37.0584 43.4614 40.1305 46.3915 43.8756 46.3915C44.9717 46.3915 46.01 46.1407 46.9367 45.6932C47.1997 49.3499 50.2568 52.2454 53.9795 52.2454C57.8742 52.2454 61.0427 49.0769 61.0427 45.1822V33.4743C61.0427 32.3635 60.1423 31.4631 59.0314 31.4631ZM33.7722 36.4467C32.0957 36.4467 30.7316 35.0828 30.7316 33.4064V18.8884C30.7316 17.2117 32.0955 15.8478 33.7722 15.8478C35.4487 15.8478 36.8126 17.2117 36.8126 18.8884V33.4063C36.8125 35.0828 35.4486 36.4467 33.7722 36.4467ZM40.8352 39.3284C40.8352 41.0051 42.1993 42.369 43.8758 42.369C45.5524 42.369 46.9164 41.0051 46.9164 39.3284V12.9661C46.9164 11.2894 45.5524 9.92549 43.8758 9.92549C42.1991 9.92549 40.8352 11.2894 40.8352 12.9661V39.3284Z" fill="#EE4D64"/>
<path id="Path" d="M57.0143 26.2647V26.9391C57.0143 28.0499 57.9148 28.9504 59.0256 28.9504C60.1364 28.9504 61.0369 28.0499 61.0369 26.9391V26.2647C61.0369 25.1539 60.1364 24.2534 59.0256 24.2534C57.9148 24.2534 57.0143 25.1539 57.0143 26.2647Z" fill="#EE4D64"/>
<path id="Path_2" d="M96.0453 26.0411V25.3667C96.0453 24.2559 95.1446 23.3554 94.034 23.3554C92.9231 23.3554 92.0227 24.2559 92.0227 25.3667V26.0411C92.0227 27.1519 92.9231 28.0524 94.034 28.0524C95.1448 28.0524 96.0453 27.1519 96.0453 26.0411Z" fill="#EE4D64"/>
</g>
</svg>
